<svg xmlns="http://www.w3.org/2000/svg" width="33.941" height="33.941" viewBox="0 0 33.941 33.941">
  <path id="Icon_awesome-arrows-alt" data-name="Icon awesome-arrows-alt" d="M16.509,19.958,12.8,23.67a1.125,1.125,0,0,1-1.591,0L7.494,19.958a1.125,1.125,0,0,1,.8-1.92h2.917V12.8H5.962v2.914a1.125,1.125,0,0,1-1.921.8L.329,12.794a1.125,1.125,0,0,1,0-1.591L4.042,7.491a1.125,1.125,0,0,1,1.921.8V11.2h5.244V5.962H8.286a1.125,1.125,0,0,1-.8-1.921L11.2.329a1.125,1.125,0,0,1,1.591,0l3.712,3.712a1.125,1.125,0,0,1-.8,1.921H12.8V11.2h5.241V8.289a1.125,1.125,0,0,1,1.92-.8l3.712,3.712a1.125,1.125,0,0,1,0,1.591l-3.712,3.712a1.125,1.125,0,0,1-1.92-.8V12.8h-5.1l-.14,5.241h2.917A1.125,1.125,0,0,1,16.509,19.958Z" transform="translate(16.971 0) rotate(45)" fill="#333" opacity="0.8"/>
</svg>
