<svg xmlns="http://www.w3.org/2000/svg" width="177" height="36" viewBox="0 0 177 36">
  <g id="Group_1655" data-name="Group 1655" transform="translate(-871.5 -3924.94)">
    <path id="Кавычка" d="M0,24.7a11.449,11.449,0,0,1,1.013-4.727l.372-1.049L9.949,0h11.29L16.476,14.848A11.332,11.332,0,0,1,22.127,24.7,11.184,11.184,0,0,1,11.061,36,11.181,11.181,0,0,1,0,24.7Z" transform="translate(936.602 3924.94)" fill="#fc0"/>
    <path id="Кавычка-2" data-name="Кавычка" d="M0,24.7a11.449,11.449,0,0,1,1.013-4.727l.372-1.049L9.949,0h11.29L16.476,14.848A11.332,11.332,0,0,1,22.127,24.7,11.184,11.184,0,0,1,11.061,36,11.181,11.181,0,0,1,0,24.7Z" transform="translate(961.748 3924.94)" fill="#fc0"/>
    <line id="Line_74" data-name="Line 74" x2="50" transform="translate(998.5 3942.5)" fill="none" stroke="#fc0" stroke-width="2"/>
    <line id="Line_75" data-name="Line 75" x2="50" transform="translate(871.5 3942.5)" fill="none" stroke="#fc0" stroke-width="2"/>
  </g>
</svg>
