<svg xmlns="http://www.w3.org/2000/svg" width="19.747" height="18" viewBox="0 0 19.747 18">
  <g id="Group_1685" data-name="Group 1685" transform="translate(-283.248 -4660)">
    <path id="Path_1421" data-name="Path 1421" d="M-12003,905.952v3.216h-2.488a2.585,2.585,0,0,0-1.846,2.3v2.3h3.691s1.928-.092,2.008,3.032a33.417,33.417,0,0,1,0,3.676s.24,3.308-2.328,3.4-4.336,0-4.336,0-1.846.276-2.006-2.757,0-10.751,0-10.751.883-4.319,4.094-4.411A16.408,16.408,0,0,1-12003,905.952Z" transform="translate(12304.597 3754.089)" fill="#fc0"/>
    <path id="Path_1422" data-name="Path 1422" d="M-12003,905.952v3.216h-2.488a2.585,2.585,0,0,0-1.846,2.3v2.3h3.691s1.928-.092,2.008,3.032a33.417,33.417,0,0,1,0,3.676s.24,3.308-2.328,3.4-4.336,0-4.336,0-1.846.276-2.006-2.757,0-10.751,0-10.751.883-4.319,4.094-4.411A16.408,16.408,0,0,1-12003,905.952Z" transform="translate(12293.626 3754.089)" fill="#fc0"/>
  </g>
</svg>
