<svg xmlns="http://www.w3.org/2000/svg" width="118.839" height="19.394" viewBox="0 0 118.839 19.394">
  <g id="Group_269" data-name="Group 269" transform="translate(-526 -4946)">
    <path id="Path_1256" data-name="Path 1256" d="M-84.783-92.05l-2.6,4.944,2.6,4.944-5.506-.944-3.9,4-.8-5.528L-100-87.106l5.009-2.472.8-5.528,3.9,4Z" transform="matrix(0.966, 0.259, -0.259, 0.966, 702.119, 5063.747)" fill="#fc0"/>
    <path id="Path_1260" data-name="Path 1260" d="M-84.783-92.05l-2.6,4.944,2.6,4.944-5.506-.944-3.9,4-.8-5.528L-100-87.106l5.009-2.472.8-5.528,3.9,4Z" transform="matrix(0.966, 0.259, -0.259, 0.966, 677.119, 5063.747)" fill="#fc0"/>
    <path id="Path_1261" data-name="Path 1261" d="M-84.783-92.05l-2.6,4.944,2.6,4.944-5.506-.944-3.9,4-.8-5.528L-100-87.106l5.009-2.472.8-5.528,3.9,4Z" transform="matrix(0.966, 0.259, -0.259, 0.966, 652.119, 5063.747)" fill="#fc0"/>
    <path id="Path_1262" data-name="Path 1262" d="M-84.783-92.05l-2.6,4.944,2.6,4.944-5.506-.944-3.9,4-.8-5.528L-100-87.106l5.009-2.472.8-5.528,3.9,4Z" transform="matrix(0.966, 0.259, -0.259, 0.966, 627.119, 5063.747)" fill="#fc0"/>
    <path id="Path_1263" data-name="Path 1263" d="M-84.783-92.05l-2.6,4.944,2.6,4.944-5.506-.944-3.9,4-.8-5.528L-100-87.106l5.009-2.472.8-5.528,3.9,4Z" transform="matrix(0.966, 0.259, -0.259, 0.966, 602.119, 5063.747)" fill="#fc0"/>
  </g>
</svg>
