<svg xmlns="http://www.w3.org/2000/svg" width="40" height="24" viewBox="0 0 40.401 24">
  <path id="Icon_awesome-vk" data-name="Icon awesome-vk" d="M40.788,8.378c.277-.937,0-1.627-1.335-1.627H35.035A1.9,1.9,0,0,0,33.115,8a37.015,37.015,0,0,1-5.43,9.038c-1.028,1.027-1.5,1.357-2.062,1.357-.278,0-.705-.33-.705-1.268V8.378c0-1.125-.315-1.627-1.245-1.627H16.728A1.066,1.066,0,0,0,15.6,7.763c0,1.065,1.59,1.313,1.755,4.313v6.51c0,1.425-.255,1.688-.817,1.688-1.5,0-5.145-5.5-7.3-11.8C8.8,7.245,8.373,6.75,7.24,6.75H2.823c-1.26,0-1.515.593-1.515,1.252,0,1.17,1.5,6.983,6.983,14.662,3.652,5.243,8.8,8.085,13.477,8.085,2.813,0,3.158-.63,3.158-1.718,0-5.01-.255-5.482,1.155-5.482.652,0,1.777.33,4.4,2.858,3,3,3.495,4.343,5.175,4.343h4.417c1.26,0,1.9-.63,1.53-1.875-.84-2.618-6.518-8-6.773-8.363-.652-.84-.465-1.215,0-1.965.007-.008,5.4-7.6,5.955-10.17Z" transform="translate(-1.308 -6.75)" fill="#fc0"/>
</svg>
