<svg xmlns="http://www.w3.org/2000/svg" width="80" height="55.268" viewBox="0 0 80 55.268">
  <g id="Замена" transform="translate(-10 -161.4)">
    <g id="Group_241" data-name="Group 241" transform="translate(10 161.4)">
      <g id="Group_240" data-name="Group 240" transform="translate(0 0)">
        <path id="Path_1236" data-name="Path 1236" d="M60.893,180a3.746,3.746,0,0,0,.008-6.184l-15.46-11.6a3.685,3.685,0,0,0-2.213-.814,3.075,3.075,0,0,0-2.937,3.393v2.352a.639.639,0,0,1-.643.643H19.908A4.513,4.513,0,0,0,15.4,172.3v8.991a4.518,4.518,0,0,0,4.508,4.508h19.74a.611.611,0,0,1,.618.618L40.242,189a3.459,3.459,0,0,0,.928,2.587,2.781,2.781,0,0,0,1.985.822,3.7,3.7,0,0,0,2.213-.814Zm-21.245,1.928H19.908a.644.644,0,0,1-.643-.643V172.3a.644.644,0,0,1,.643-.643h19.74a4.518,4.518,0,0,0,4.508-4.508v-.529c0-.293.635-.057,1.416.529l11.595,8.706a1.255,1.255,0,0,1,0,2.124l-11.627,8.682c-.781.586-1.416.781-1.416.431l.008-.627a4.487,4.487,0,0,0-4.483-4.532Z" transform="translate(-14.961 -161.4)" fill="#fc0"/>
        <path id="Path_1237" data-name="Path 1237" d="M432.151,458.122a2.8,2.8,0,0,0-1.985-.822,3.652,3.652,0,0,0-2.213.814l-15.517,11.611a3.738,3.738,0,0,0-.008,6.176l15.46,11.6a3.638,3.638,0,0,0,2.221.814,3.075,3.075,0,0,0,2.937-3.393v-2.343a.644.644,0,0,1,.643-.643h19.74a4.518,4.518,0,0,0,4.508-4.508v-8.983a4.513,4.513,0,0,0-4.508-4.508H433.672a.59.59,0,0,1-.439-.187.62.62,0,0,1-.179-.448l.024-2.579A3.5,3.5,0,0,0,432.151,458.122Zm21.27,9.675a.639.639,0,0,1,.643.643v8.991a.644.644,0,0,1-.643.643h-19.74a4.518,4.518,0,0,0-4.508,4.508v.529c0,.293-.635.057-1.416-.529l-11.595-8.706a1.255,1.255,0,0,1,0-2.124l11.619-8.69c.781-.586,1.416-.781,1.416-.431l-.008.627a4.436,4.436,0,0,0,1.294,3.2,4.489,4.489,0,0,0,3.19,1.334l19.748.008Z" transform="translate(-377.936 -433.05)" fill="#fc0"/>
        <path id="Path_1238" data-name="Path 1238" d="M37.364,697.8H11.774c-.976,0-1.774.594-1.774,1.326s.8,1.326,1.774,1.326h25.59c.976,0,1.774-.594,1.774-1.326A1.607,1.607,0,0,0,37.364,697.8Z" transform="translate(-10 -654.01)" fill="#fc0"/>
        <path id="Path_1239" data-name="Path 1239" d="M37.364,594.5H11.774c-.976,0-1.774.594-1.774,1.326s.8,1.326,1.774,1.326h25.59c.976,0,1.774-.594,1.774-1.326A1.607,1.607,0,0,0,37.364,594.5Z" transform="translate(-10 -559.143)" fill="#fc0"/>
        <path id="Path_1240" data-name="Path 1240" d="M659.364,362.8h-25.59c-.976,0-1.774.594-1.774,1.326s.789,1.326,1.774,1.326h25.59c.976,0,1.774-.594,1.774-1.326S660.34,362.8,659.364,362.8Z" transform="translate(-581.138 -346.358)" fill="#fc0"/>
        <path id="Path_1241" data-name="Path 1241" d="M659.364,259.4h-25.59c-.976,0-1.774.594-1.774,1.326s.789,1.326,1.774,1.326h25.59c.976,0,1.774-.594,1.774-1.326A1.607,1.607,0,0,0,659.364,259.4Z" transform="translate(-581.138 -251.426)" fill="#fc0"/>
      </g>
    </g>
  </g>
</svg>
