<svg xmlns="http://www.w3.org/2000/svg" xmlns:xlink="http://www.w3.org/1999/xlink" width="128" height="128" viewBox="0 0 128 128">
  <defs>
    <clipPath id="clip-path">
      <rect id="Rectangle_1383" data-name="Rectangle 1383" width="128" height="128" transform="translate(1244 1611)" fill="#333"/>
    </clipPath>
  </defs>
  <g id="kia" transform="translate(-1244 -1611)" clip-path="url(#clip-path)">
    <g id="KIA_-2" data-name="KIA  -2" transform="translate(1248.197 1646.148)">
      <g id="Group_2155" data-name="Group 2155" transform="translate(5.668 3.852)">
        <path id="Path_1431" data-name="Path 1431" d="M39.542,29.307l7.679-10.858c.3-.427-.057-.91-.676-.91L40.617,17.5A3.085,3.085,0,0,0,38.91,18.5l-2.675,3.37-3.722,4.7.031-8.129a1.018,1.018,0,0,0-.973-.91h-6.8c-.469,0-.9.171-.911,1.008s1.043,1,1.043,1.222V41.5a1.3,1.3,0,0,0,1,1.038l5.822-.03c.411-.013.765-.581.765-.965l.013-9.051,3.722,4.447,3.948,4.69a2.4,2.4,0,0,0,1.618.88l6.326-.043c.6,0,.544-.709.4-.9Q44,35.458,39.542,29.307ZM61.368,17.54h-6.72c-.8,0-.973.453-1.105.94a1.6,1.6,0,0,0,1.105,1.136v21.93a.882.882,0,0,0,.884.965l2.414-.013,3.59-.03c.663,0,.836-.384.836-.923v-23.1A.954.954,0,0,0,61.368,17.54Z" transform="translate(-4.508 -3.615)" fill="#333" fill-rule="evenodd"/>
        <path id="Path_1432" data-name="Path 1432" d="M79.17,3.886a100.546,100.546,0,0,0-23.7-2.729c-.057,0-.119.013-.19.013a101.524,101.524,0,0,0-21.71,2.289C14.909,7.581,1.85,16.79,1.85,27.434S14.914,47.288,33.578,51.41A101.493,101.493,0,0,0,55.289,53.7h.19a100.572,100.572,0,0,0,23.7-2.712C96.9,46.694,109.12,37.741,109.12,27.439S96.9,8.174,79.17,3.886Zm0,41.369a109.712,109.712,0,0,1-23.7,2.473c-.057,0-.119-.013-.19-.013a110.861,110.861,0,0,1-21.71-2.076C17.115,42.329,5.758,35.4,5.758,27.434S17.115,12.54,33.574,9.229a112.15,112.15,0,0,1,21.71-2.089h.19a109.712,109.712,0,0,1,23.7,2.473C94.656,13.052,105.2,19.763,105.2,27.434S94.66,41.816,79.17,45.255Z" transform="translate(-1.85 -1.156)" fill="#333" fill-rule="evenodd"/>
        <path id="Path_1433" data-name="Path 1433" d="M92.669,18.487c-.221-.483-.6-.94-1.105-.94H82.474a.757.757,0,0,0-.765.683c-.013,1.252,1.34,1.209,1.264,1.392L75.313,41.467c-.133.372.208,1.051.676,1.051l5.34-.043a1.541,1.541,0,0,0,1.322-.94L85.18,34.2q1.28-3.665,2.546-7.334a.338.338,0,0,1,.309-.158c.208,0,.424.073.469.214L93.46,41.617a1.723,1.723,0,0,0,1.163.854l5.561.043c.323,0,.707-.624.606-.91L92.669,18.487Z" transform="translate(-10.716 -3.622)" fill="#333" fill-rule="evenodd"/>
      </g>
    </g>
  </g>
</svg>
