<svg xmlns="http://www.w3.org/2000/svg" xmlns:xlink="http://www.w3.org/1999/xlink" width="128" height="128" viewBox="0 0 128 128">
  <defs>
    <clipPath id="clip-path">
      <rect id="Rectangle_1384" data-name="Rectangle 1384" width="128" height="128" transform="translate(1378 1611)" fill="#333"/>
    </clipPath>
  </defs>
  <g id="komatsu" transform="translate(-1378 -1611)" clip-path="url(#clip-path)">
    <g id="KOMATSU_-2" data-name="KOMATSU -2" transform="translate(1387 1664.936)">
      <path id="Path_1434" data-name="Path 1434" d="M.073,5.256h6.6V12.7l3.29-7.446h7.454l-3.6,7.764,3.817,8.18H10.157l-3.479-7.73V21.2H.073Zm0,0" transform="translate(-0.073 -1.006)" fill="#333"/>
      <path id="Path_1435" data-name="Path 1435" d="M26.15,4.187a8.274,8.274,0,0,0-8.2,8.345,8.206,8.206,0,1,0,16.41,0A8.275,8.275,0,0,0,26.15,4.187m-.062,10.528a2.181,2.181,0,1,1,2.163-2.182,2.158,2.158,0,0,1-2.163,2.182M36.94,4.9h5.8l1.827,5.824L46.48,4.933h5.8l2.186,14.232L59.333,4.933h6.2L70.7,20.476h-6.44L62.4,13.217,60.61,20.538H48.821L47.9,14.9l-1.577,5.577H42.739l-1.575-5.608-.882,5.608H34.51Zm32.117,5.824V5h9.786V.073H84.8v6.1A8.607,8.607,0,0,1,90.117,4.5c2.886.218,5.223,1.462,5.407,1.81l-1.64,4.047S91,8.86,90.176,9.075s-1,.533-.609,1,2.342.653,2.83.935a4.482,4.482,0,0,1,3.1,3.707,5.358,5.358,0,0,1-4.283,6.011c-2.675.4-6.2.4-9-1.775l1.675-4.141a13.407,13.407,0,0,0,3.584,1.524c1.214.122,1.732.156,1.885-.406s-.821-.9-1.488-1.029-3.5-.84-4.165-2.585a5.617,5.617,0,0,1,.944-6.038H79.024V20.569H72.642V10.726Zm28.078-5.76h6.229v9.311s0,1.248.911,1.248.76-1.217.76-1.217V5h6.379V15.086s0,6.011-7.045,6.011-7.2-5.107-7.234-5.791Zm0,0" transform="translate(-1.414 -0.073)" fill="#333"/>
    </g>
  </g>
</svg>
