<svg xmlns="http://www.w3.org/2000/svg" xmlns:xlink="http://www.w3.org/1999/xlink" width="128" height="128" viewBox="0 0 128 128">
  <defs>
    <clipPath id="clip-path">
      <rect id="Rectangle_1385" data-name="Rectangle 1385" width="128" height="128"/>
    </clipPath>
  </defs>
  <g id="volvo" clip-path="url(#clip-path)">
    <g id="layer1" transform="translate(18.985 18.885)">
      <g id="g3794" transform="translate(-9.371 -9.385)">
        <g id="Layer_x0020_1" transform="translate(0 0)">
          <path id="path3781" d="M50.6,50.294H48.264V48.744h9.308v1.549H55.259v6.978h2.149a3.065,3.065,0,0,0,3.3-3.1H62.24v4.675H48.264V57.286H50.6V50.307h0Zm11.375,0H59.666V48.744H69.755v1.549H67.318l3.408,6.224,3.354-6.224H72.068V48.744h6.954v1.549H76.709L72.1,58.835H66.661l-4.7-8.541h.014Zm23.27-1.769c4.668,0,7.186,2.331,7.186,5.265,0,2.975-2.368,5.333-7.159,5.333s-7.186-2.372-7.186-5.333C78.091,50.856,80.569,48.525,85.25,48.525ZM25.965,56.5l3.354-6.224H27.307V48.731h6.954V50.28H31.947l-4.613,8.541H21.9L17.2,50.28H14.891V48.731H24.98V50.28H22.543L25.952,56.5h.014ZM40.5,48.525c4.668,0,7.186,2.331,7.186,5.265,0,2.975-2.368,5.333-7.159,5.333s-7.186-2.372-7.186-5.333C33.343,50.856,35.821,48.525,40.5,48.525Zm-2.478,5.21c.027-1.947.958-3.633,2.56-3.606s2.437,1.755,2.409,3.7c-.027,1.837-.794,3.743-2.546,3.715-1.711-.027-2.45-1.919-2.423-3.8h0Zm44.748,0c.041-1.947.958-3.633,2.56-3.606s2.437,1.755,2.409,3.7c-.027,1.837-.794,3.743-2.546,3.715-1.711-.027-2.464-1.919-2.423-3.8h0Zm-68.292-9.72a40.585,40.585,0,0,1,78.818,0H14.481Zm78.8,19.536a40.585,40.585,0,0,1-78.818,0H93.285ZM97.1,21.53l2.56-2.55a55.534,55.534,0,0,1,4.873,7.6h2.012V1.089H81.1v2a56.964,56.964,0,0,1,7.529,4.867l-2.56,2.55A54,54,0,1,0,97.091,21.544h0Z" transform="translate(0.015 0.186)"/>
        </g>
      </g>
    </g>
  </g>
</svg>
